<svg width="33" height="33" viewBox="0 0 33 33" fill="none" xmlns="http://www.w3.org/2000/svg">
<path d="M31.7126 0.0820312H2.25349C1.54503 0.0820312 0.972656 0.654403 0.972656 1.36286V30.822C0.972656 31.5304 1.54503 32.1028 2.25349 32.1028H31.7126C32.4211 32.1028 32.9934 31.5304 32.9934 30.822V1.36286C32.9934 0.654403 32.4211 0.0820312 31.7126 0.0820312ZM28.0142 9.4281H25.4565C23.4512 9.4281 23.063 10.3807 23.063 11.7816V14.8676H27.8501L27.2257 19.6988H23.063V32.1028H18.0718V19.7028H13.897V14.8676H18.0718V11.3053C18.0718 7.17063 20.5974 4.91717 24.2878 4.91717C26.0569 4.91717 27.5739 5.04925 28.0182 5.10929V9.4281H28.0142Z" fill="#2091F9"/>
</svg>
