<svg width="33" height="33" viewBox="0 0 33 33" fill="none" xmlns="http://www.w3.org/2000/svg">
<path d="M31.697 0.0820312H2.23786C1.5294 0.0820312 0.957031 0.654403 0.957031 1.36286V30.822C0.957031 31.5304 1.5294 32.1028 2.23786 32.1028H31.697C32.4054 32.1028 32.9778 31.5304 32.9778 30.822V1.36286C32.9778 0.654403 32.4054 0.0820312 31.697 0.0820312ZM10.4552 27.3677H5.70411V12.0858H10.4552V27.3677ZM8.08165 9.99646C7.53701 9.99646 7.00459 9.83496 6.55173 9.53237C6.09887 9.22978 5.74591 8.79969 5.53749 8.29651C5.32906 7.79332 5.27453 7.23962 5.38078 6.70544C5.48704 6.17126 5.74931 5.68058 6.13443 5.29546C6.51956 4.91033 7.01023 4.64806 7.54442 4.5418C8.0786 4.43555 8.63229 4.49008 9.13548 4.69851C9.63867 4.90694 10.0688 5.2599 10.3713 5.71276C10.6739 6.16561 10.8354 6.69803 10.8354 7.24268C10.8314 8.76366 9.59864 9.99646 8.08165 9.99646ZM28.2427 27.3677H23.4957V19.9349C23.4957 18.1618 23.4636 15.8843 21.0261 15.8843C18.5565 15.8843 18.1762 17.8135 18.1762 19.8068V27.3677H13.4331V12.0858H17.9881V14.1752H18.0521C18.6845 12.9744 20.2335 11.7056 22.547 11.7056C27.3582 11.7056 28.2427 14.8716 28.2427 18.9863V27.3677Z" fill="#2091F9"/>
</svg>
