<svg width="42" height="42" viewBox="0 0 42 42" fill="none" xmlns="http://www.w3.org/2000/svg">
<path d="M37.6455 10.7776C36.4207 11.3059 35.0878 11.6862 33.7149 11.8343C35.1403 10.9875 36.2077 9.64964 36.7168 8.07182C35.3793 8.8675 33.914 9.42544 32.386 9.72089C31.7474 9.03816 30.975 8.49426 30.117 8.12309C29.2589 7.75192 28.3337 7.56143 27.3988 7.56349C23.6163 7.56349 20.5744 10.6295 20.5744 14.3919C20.5744 14.9203 20.6384 15.4486 20.7425 15.9569C15.0788 15.6607 10.0275 12.955 6.66936 8.8123C6.05746 9.85744 5.7368 11.0475 5.74075 12.2585C5.74075 14.6281 6.94553 16.7174 8.78273 17.9462C7.70004 17.9036 6.64271 17.606 5.69672 17.0777V17.1617C5.69672 20.4799 8.04225 23.2297 11.1683 23.8621C10.5813 24.0145 9.97753 24.0925 9.37111 24.0942C8.92682 24.0942 8.50655 24.0502 8.08227 23.9902C8.94683 26.6959 11.4645 28.6612 14.4624 28.7252C12.1169 30.5624 9.17898 31.6431 5.98891 31.6431C5.41654 31.6431 4.8882 31.6231 4.33984 31.5591C7.36581 33.5003 10.9561 34.621 14.8226 34.621C27.3748 34.621 34.2432 24.2223 34.2432 15.1964C34.2432 14.9003 34.2432 14.6041 34.2232 14.3079C35.5521 13.3352 36.7168 12.1305 37.6455 10.7776Z" fill="#2091F9"/>
</svg>
