<svg width="797" height="532" viewBox="0 0 797 532" fill="none" xmlns="http://www.w3.org/2000/svg">
<g clip-path="url(#clip0_66_3840)">
<path d="M483.712 523C619.997 523 730.478 491.383 730.478 452.381C730.478 413.379 619.997 381.762 483.712 381.762C347.426 381.762 236.945 413.379 236.945 452.381C236.945 491.383 347.426 523 483.712 523Z" fill="#F5F5F5"/>
<path d="M718.495 177.666C718.495 177.666 674.782 221.45 699.459 286.419C724.136 351.389 657.156 459.436 657.156 459.436C657.156 459.436 657.861 459.33 659.208 459.097C748.989 443.222 793.597 340.372 743.673 263.97C725.137 235.567 709.873 202.242 718.495 177.666Z" fill="#2091F9"/>
<path d="M718.495 177.666C718.495 177.666 693.819 231.337 718.495 275.12C743.172 318.904 722.726 441.781 657.156 459.436" stroke="#535461" stroke-width="2" stroke-miterlimit="10"/>
<path d="M796.343 354.757C796.343 354.757 746.461 346.799 741.914 391.578C737.366 436.358 646.027 442.558 646.027 442.558C646.027 442.558 646.62 442.967 647.741 443.702C723.181 493.305 795.3 475.297 784.435 409.43C780.367 384.947 780.691 360.35 796.343 354.757Z" fill="#2091F9"/>
<path opacity="0.2" d="M796.343 354.757C796.343 354.757 746.461 346.799 741.914 391.578C737.366 436.358 646.027 442.558 646.027 442.558C646.027 442.558 646.62 442.967 647.741 443.702C723.181 493.305 795.3 475.297 784.435 409.43C780.367 384.947 780.691 360.35 796.343 354.757Z" fill="#F5F5F5"/>
<path d="M796.344 354.757C796.344 354.757 757.623 363.274 760.803 398.541C763.983 433.808 703.278 476.067 646 442.544" stroke="#535461" stroke-width="2" stroke-miterlimit="10"/>
<path opacity="0.2" d="M226.245 9.05639C220.562 8.85866 214.739 9.05639 209.408 11.0478C194.906 16.4643 188.031 34.1826 190.266 49.5281C192.501 64.8736 201.695 78.1994 211.235 90.4094C220.774 102.619 231.11 114.674 236.341 129.25C238.95 136.531 240.17 144.687 237.519 151.954C233.429 163.161 221.098 169.425 209.26 170.724C197.423 172.024 185.536 169.489 173.656 168.606C168.671 168.253 163.545 168.21 158.85 169.849C153.696 171.635 149.402 175.279 145.454 179.079C130.048 193.979 117.717 214.317 119.712 235.673C121.969 259.881 142.091 279.019 164.13 289.279C171.428 292.683 179.148 295.437 185.571 300.296C202.492 313.106 206.292 337.11 204.607 358.302C202.922 379.495 197.183 400.709 200.377 421.718C204.135 446.152 220.767 468.221 243.201 478.531C263.189 487.712 288.204 487.14 305.951 474.153C314.601 467.797 321.144 459.033 326.834 449.945C335.422 436.233 342.39 421.568 347.598 406.246C350.072 398.965 352.399 391.133 358.173 386.07C361.699 382.956 366.267 381.211 370.787 379.855C384.408 375.773 398.756 374.651 412.504 371.021C426.253 367.391 440.086 360.626 447.559 348.529C458.135 331.361 453.2 309.406 453.249 289.209C453.333 243.194 480.823 201.994 490.969 157.151C494.283 142.491 495.516 126.27 488.113 113.198C483.079 104.279 474.598 97.9233 465.679 92.9799C446.079 82.0764 423.799 77.2249 401.879 72.5005C371.414 65.947 334.42 65.0996 310.808 43.8998C288.148 23.5615 257.147 9.05639 226.245 9.05639Z" fill="#2091F9"/>
<g opacity="0.5">
<path opacity="0.5" d="M336.754 187.164C336.752 176.073 335.018 165.05 331.614 154.496L323.154 128.219C323.154 127.781 323.154 127.35 323.154 126.919C323.415 110.077 310.308 101.673 305.26 102.584C300.092 103.516 285.751 96.3132 285.751 96.3132V96.5109C284.768 95.3772 283.881 94.163 283.1 92.8811C285.578 91.0736 287.67 88.7882 289.253 86.1593C290.836 83.5304 291.879 80.6111 292.32 77.5728C292.76 74.5345 292.59 71.4386 291.82 68.467C291.049 65.4955 289.692 62.7083 287.831 60.2693C289.381 59.1028 290.563 57.5142 291.236 55.6932C292.407 52.3953 291.511 48.6313 289.607 45.6935C288.798 44.4672 287.852 43.3371 286.787 42.325C285.175 40.7249 283.414 39.2824 281.528 38.0172C276.825 34.7546 271.657 31.9511 266.017 30.9553C265.041 30.7245 264.024 30.7245 263.048 30.9553C262.201 31.2977 261.395 31.7336 260.644 32.2547C256.781 34.4581 251.972 33.5047 247.516 33.2716C243.06 33.0386 237.646 34.2886 236.235 38.4763C235.798 39.7686 235.827 41.1668 235.53 42.4945C234.825 45.743 232.322 48.264 230.391 50.9688C228.459 53.6735 227.013 57.3245 228.621 60.2622C229.171 61.2509 230.031 62.1619 230.031 63.2918C230.031 64.1039 229.552 64.8313 229.326 65.6081C228.84 67.3735 229.756 69.139 231.166 70.4172C231.774 71.0734 232.489 71.6203 233.281 72.0344C235.516 73.1784 238.09 73.5315 240.367 74.5908C241.504 75.1255 242.547 75.841 243.455 76.7094C244.568 77.8763 245.438 79.2534 246.014 80.7604C246.59 82.2675 246.861 83.8743 246.811 85.4873L247.284 85.5367C247.284 85.678 247.284 85.8122 247.284 85.9534C247.777 86.0099 248.299 86.0593 248.813 86.0805C249.554 87.2776 250.401 88.4051 251.345 89.449C251.185 90.0516 251.004 90.6637 250.802 91.2851C249.145 92.4362 235.594 101.475 220.182 99.3004C203.733 96.977 194.327 169.008 194.327 169.008C193.718 173.128 193.421 177.287 193.439 181.451C193.369 192.044 195.589 205.907 207.963 203.866L214.541 201.698V237.325C214.541 237.325 215.479 247.085 212.193 253.567C208.908 260.05 222.536 257.748 222.536 257.748C222.536 257.748 223.058 258.292 224.017 259.217L223.714 260.071L224.116 260.481C222.323 266.619 219.906 272.556 216.903 278.199L217.291 278.397C217.044 278.87 216.903 279.103 216.903 279.103C216.903 279.103 221.965 281.695 228.931 285.035C234.529 303.989 246.783 347.886 242.75 356.247L242.863 356.488C243.617 358.055 247.833 367.299 246.98 375.767C246.212 383.337 256.675 417.735 260.581 430.228L258.734 430.602L265.312 454.302L263.901 469.64C263.901 469.64 255.913 491.017 274.71 486.836C293.506 482.655 288.338 465.46 288.338 465.46L288.811 430.602C288.811 430.602 286.999 429.592 284.764 428.625C283.227 424.465 279.878 414.635 279.878 407.835C279.878 399.007 273.765 360.894 273.765 360.894V360.816V360.668V360.626L273.73 360.117V360.033C273.73 359.559 273.652 358.91 273.596 358.119V358.076C272.891 347.773 270.776 312.767 272.32 294.519C273.678 293.592 275.09 292.748 276.55 291.991C281.126 303.573 292.921 334.864 292.167 347.992C291.229 364.234 291.934 351.481 292.167 349.404C292.237 348.762 292.287 349.539 292.308 351.283C292.308 351.601 292.308 351.954 292.308 352.328C292.308 352.702 292.308 353.119 292.308 353.55C292.308 353.981 292.308 354.447 292.308 354.962C292.308 355.207 292.308 355.456 292.308 355.711C292.308 356.219 292.308 356.751 292.308 357.307C292.308 357.584 292.308 357.867 292.308 358.154C292.308 359.567 292.308 361.134 292.258 362.766C292.258 363.09 292.258 363.42 292.258 363.754C292.258 364.75 292.258 365.767 292.209 366.798C292.209 368.21 292.153 369.58 292.125 371C292.054 374.178 291.962 377.391 291.85 380.399C291.85 380.733 291.838 381.065 291.814 381.395C291.791 382.054 291.765 382.699 291.737 383.33C291.709 383.961 291.68 384.577 291.652 385.18C291.624 385.778 291.593 386.359 291.56 386.924C291.525 387.588 291.483 388.224 291.448 388.831L288.895 388.464L288.353 394.339C287.497 403.668 288.701 413.07 291.878 421.881C292.752 424.296 293.429 426.294 293.577 427.008C294.049 429.331 293.577 446.075 293.577 446.075C293.577 446.075 296.397 467.917 309.56 463.729C315.483 461.844 318.359 456.11 319.734 450.361C321.26 443.698 320.691 436.725 318.105 430.397C316.237 425.694 314.326 419.098 315.673 414C318.021 405.172 318.021 392.623 318.021 392.623L316.569 392.418C316.93 391.729 317.258 391.022 317.549 390.3C317.549 390.3 317.076 358.232 321.306 354.051C323.633 351.749 323.422 346.22 322.717 341.7C321.709 335.159 321.473 328.523 322.011 321.927C322.301 318.53 322.717 315.571 323.203 314.519C324.444 312.061 325.685 287.288 320.192 275.368L321.321 275.014L321.144 274.139L321.321 274.082C322.149 276.297 323.09 278.468 324.141 280.586C324.418 280.804 324.737 280.963 325.078 281.052C340.3 278.376 340.914 264.146 340.068 256.378C340.709 256.689 341.062 256.887 341.062 256.887L342.472 236.407C343.917 233.137 344.453 228.964 344.418 224.451C344.481 208.322 336.754 187.164 336.754 187.164ZM319.974 245.376C318.93 236.456 317.485 228.06 317.485 228.06L310.435 202.962V193.824L321.617 235.63L319.974 245.376Z" fill="url(#paint0_linear_66_3840)"/>
</g>
<path d="M288.274 382.468L287.752 388.21C286.929 397.332 288.096 406.525 291.172 415.151C292.011 417.516 292.666 419.466 292.807 420.165C293.259 422.439 292.807 438.787 292.807 438.787C292.807 438.787 295.529 460.135 308.227 456.046C313.938 454.21 316.687 448.596 318.041 442.982C319.509 436.47 318.958 429.666 316.462 423.477C314.657 418.879 312.81 412.418 314.114 407.453C316.384 398.824 316.384 386.564 316.384 386.564L288.274 382.468Z" fill="#5A5773"/>
<path d="M274.672 283.912C274.672 283.912 292.354 327.061 291.445 342.95C290.535 358.839 291.219 346.354 291.445 344.313C291.847 340.676 291.445 383.859 290.084 388.803C290.084 388.803 308.676 402.425 315.931 384.262C315.931 384.262 315.48 352.928 319.555 348.839C321.797 346.594 321.579 341.184 320.916 336.771C319.938 330.386 319.701 323.91 320.211 317.471C320.486 314.151 320.867 311.228 321.36 310.232C322.721 307.506 324.082 276.625 315.917 267.995L274.672 283.912Z" fill="#605D82"/>
<path opacity="0.1" d="M292.355 388.824C293.716 383.831 294.118 340.676 293.716 344.334C293.49 346.375 292.806 358.867 293.716 342.971C294.625 327.075 276.943 283.934 276.943 283.934L316.503 268.694C316.32 268.461 316.129 268.242 315.939 268.037L274.68 283.934C274.68 283.934 292.362 327.082 291.453 342.971C290.543 358.86 291.227 346.375 291.453 344.334C291.855 340.697 291.453 383.881 290.092 388.824C290.092 388.824 297.516 394.262 304.813 393.683C298.32 393.195 292.355 388.824 292.355 388.824Z" fill="black"/>
<path d="M259.254 423.794L265.599 446.957L264.239 461.943C264.239 461.943 256.532 482.832 274.666 478.743C292.8 474.654 287.815 457.854 287.815 457.854L288.267 423.794C288.267 423.794 281.012 419.706 277.839 420.165C274.666 420.624 259.254 423.794 259.254 423.794Z" fill="#5A5773"/>
<path d="M227.973 273.016C227.973 273.016 248.828 340.683 243.843 351.128C243.843 351.128 248.828 361.12 247.925 370.195C247.023 379.269 262.435 427.869 262.435 427.869L285.11 423.78C285.11 423.78 279.667 410.158 279.667 401.528C279.667 392.899 273.772 355.626 273.772 355.626C273.772 355.626 268.788 287.5 274.682 280.233L227.973 273.016Z" fill="#605D82"/>
<g opacity="0.1">
<path opacity="0.1" d="M272.921 285.77C269.163 301.193 273.316 357.949 273.316 357.949C273.316 357.949 279.21 395.187 279.21 403.852C279.21 410.44 282.376 419.932 283.878 424.056L285.104 423.837C285.104 423.837 279.662 410.214 279.662 401.585C279.662 392.955 273.767 355.683 273.767 355.683C273.767 355.683 269.974 303.813 272.921 285.77Z" fill="black"/>
<path opacity="0.1" d="M243.844 351.128L243.957 351.361C243.992 351.128 244.027 350.881 244.048 350.655C243.988 350.816 243.92 350.974 243.844 351.128Z" fill="black"/>
<path opacity="0.1" d="M273.653 282.465C273.859 281.681 274.205 280.942 274.675 280.283L227.973 273.016C227.973 273.016 228.248 273.899 228.72 275.474L273.653 282.465Z" fill="black"/>
</g>
<path d="M336.788 248.49C336.788 248.49 343.592 273.913 323.188 277.557C322.857 277.471 322.547 277.317 322.278 277.105C322.278 277.105 310.49 253.942 319.557 244.86L336.788 248.49Z" fill="#FAC3CA"/>
<path d="M253.361 79.5625C253.361 79.5625 254.722 98.6296 239.761 107.718C224.8 116.807 271.488 141.778 271.488 141.778L295.974 102.718C295.974 102.718 285.554 104.067 279.208 85.9182L253.361 79.5625Z" fill="#FAC3CA"/>
<path opacity="0.1" d="M243.382 109.067C243.382 109.067 266.508 157.208 287.363 111.793L319.556 271.646C319.556 271.646 269.674 287.09 269.229 294.357C268.785 301.624 218.91 275.742 218.91 275.742C218.91 275.742 229.789 255.757 227.075 243.497C224.36 231.238 243.382 109.067 243.382 109.067Z" fill="black"/>
<path d="M243.382 108.156C243.382 108.156 266.508 156.297 287.363 110.882L319.556 270.742C319.556 270.742 269.674 286.186 269.229 293.453C268.785 300.72 218.91 274.831 218.91 274.831C218.91 274.831 229.789 254.846 227.075 242.586C224.36 230.327 243.382 108.156 243.382 108.156Z" fill="#E1E7EF"/>
<path d="M266.06 436.513C266.06 436.513 260.166 423.343 273.766 423.343C287.366 423.343 285.103 435.15 285.103 435.15L266.06 436.513Z" fill="#5A5773"/>
<path d="M296.892 402.446C296.892 402.446 291.449 388.365 305.056 387.913C318.663 387.461 311.86 400.624 311.86 400.624L296.892 402.446Z" fill="#5A5773"/>
<path opacity="0.1" d="M285.328 97.9233C285.328 97.9233 299.154 104.985 304.146 104.053C309.138 103.121 322.28 111.772 321.377 129.031L329.57 154.779C332.847 165.103 334.512 175.872 334.505 186.705C334.505 186.705 346.294 219.402 339.948 233.935L338.587 253.921C338.587 253.921 328.16 248.017 317.274 249.832L320.016 233.512L307.749 187.179L287.345 137.675L285.328 97.9233Z" fill="black"/>
<path d="M285.328 97.0264C285.328 97.0264 299.154 104.088 304.146 103.156C309.138 102.224 322.28 110.875 321.377 128.134L329.57 153.882C332.847 164.206 334.512 174.975 334.505 185.809C334.505 185.809 346.294 218.505 339.948 233.038L338.587 253.024C338.587 253.024 328.16 247.12 317.274 248.935L319.995 232.587L307.749 186.268L287.366 136.764L285.328 97.0264Z" fill="#67647E"/>
<path opacity="0.1" d="M308.228 152.208V203.527L315.032 228.053C315.032 228.053 319.565 254.846 318.204 263.023C316.844 271.201 295.079 273.016 289.185 266.201C283.291 259.387 286.463 201.232 286.463 201.232L285.328 116.101L286.238 113.375L308.228 152.208Z" fill="black"/>
<path d="M309.158 149.941V201.26L315.961 225.786C315.961 225.786 320.495 252.579 319.134 260.757C317.773 268.934 296.009 270.749 290.114 263.935C284.22 257.12 287.393 198.965 287.393 198.965L286.258 113.813L309.158 149.941Z" fill="#67647E"/>
<path opacity="0.1" d="M217.77 192.63L232.279 237.827L225.476 257.127C225.476 257.127 257.668 291.186 278.072 274.838C278.072 274.838 280.342 205.349 275.802 189.001C271.261 172.652 249.504 117.676 249.504 117.676L244.998 103.163L220.97 116.786L217.77 192.63Z" fill="black"/>
<path d="M216.633 190.356V234.846C216.633 234.846 217.543 244.387 214.363 250.743C211.183 257.098 224.339 254.832 224.339 254.832C224.339 254.832 256.532 288.891 276.936 272.543C276.936 272.543 279.206 203.054 274.666 186.705C270.125 170.357 248.367 115.38 248.367 115.38L243.834 100.847L219.806 114.469L216.633 190.356Z" fill="#67647E"/>
<path opacity="0.1" d="M251.773 92.9448C251.773 92.9448 237.947 103.163 222.077 100.889C206.206 98.6155 197.139 169.016 197.139 169.016C197.139 169.016 191.245 205.349 210.288 202.171L252.457 188.09C252.457 188.09 243.39 178.549 244.751 166.29L224.34 174.46L225.256 135.408L251.773 92.9448Z" fill="black"/>
<path opacity="0.1" d="M198.041 168.105C198.041 168.105 192.147 204.438 211.19 201.26L253.359 187.179C253.359 187.179 244.292 177.645 245.653 165.379L225.256 173.556L198.041 168.105Z" fill="black"/>
<path d="M244.652 170.166C244.652 170.166 258.803 151.53 269.223 160.478C279.644 169.425 248.389 185.823 248.389 185.823L244.652 170.166Z" fill="#FAC3CA"/>
<path d="M251.773 92.0337C251.773 92.0337 237.947 102.252 222.077 99.9783C206.206 97.7044 197.139 168.104 197.139 168.104C197.139 168.104 191.245 204.438 210.288 201.26L252.457 187.179C252.457 187.179 243.39 177.638 244.751 165.379L224.34 173.556L225.256 134.497L248.382 115.43L251.773 92.0337Z" fill="#67647E"/>
<path opacity="0.1" d="M279.659 86.8081L253.812 80.4524C253.812 80.4524 255.158 81.9778 253.586 87.9451C257.746 92.726 262.857 99.0746 269.682 99.0746C274.566 99.0838 279.321 97.5052 283.233 94.5762C281.773 92.1193 280.575 89.5157 279.659 86.8081Z" fill="black"/>
<path d="M269.229 98.1706C281.752 98.1706 291.903 88.0026 291.903 75.4596C291.903 62.9166 281.752 52.7485 269.229 52.7485C256.706 52.7485 246.555 62.9166 246.555 75.4596C246.555 88.0026 256.706 98.1706 269.229 98.1706Z" fill="#FAC3CA"/>
<path opacity="0.1" d="M277.825 65.601C283.085 64.7041 288.867 62.3666 290.629 57.3244C291.757 54.0972 290.897 50.425 289.057 47.5508C287.217 44.6766 284.509 42.4662 281.717 40.4889C277.184 37.2969 272.185 34.5569 266.728 33.5965C265.787 33.3712 264.806 33.3712 263.866 33.5965C263.047 33.9319 262.269 34.3583 261.546 34.8676C257.816 37.0215 253.177 36.0893 248.855 35.8633C244.533 35.6374 239.351 36.8591 237.99 40.9479C237.567 42.212 237.596 43.5749 237.285 44.8743C236.58 48.0522 234.19 50.5238 232.35 53.1721C230.51 55.8203 229.093 59.4007 230.644 62.2537C231.173 63.2211 232.054 64.1109 232.054 65.2126C231.918 65.9956 231.681 66.7576 231.349 67.4795C230.707 69.824 232.576 72.1897 234.733 73.3055C236.89 74.4213 239.372 74.7673 241.572 75.8054C243.631 76.8231 245.355 78.4116 246.538 80.3821C247.722 82.3526 248.316 84.6222 248.249 86.9208C250.251 87.1539 252.585 87.2739 253.938 85.7768C254.545 85.1059 254.841 84.2091 255.391 83.4958C256.096 82.5637 257.196 82.0128 258.098 81.2643C262.843 77.359 259.473 71.9638 262.159 67.7549C263.569 65.5869 265.811 66.2507 268.082 66.286C271.344 66.3624 274.606 66.1331 277.825 65.601Z" fill="black"/>
<path d="M277.372 65.1491C282.632 64.2522 288.413 61.9147 290.176 56.8725C291.304 53.6453 290.444 49.9731 288.604 47.0989C286.764 44.2247 284.056 42.0143 281.264 40.037C276.731 36.845 271.732 34.105 266.275 33.1446C265.334 32.9193 264.353 32.9193 263.412 33.1446C262.594 33.48 261.816 33.9064 261.093 34.4157C257.363 36.5696 252.724 35.6374 248.402 35.4114C244.08 35.1855 238.898 36.4072 237.537 40.496C237.114 41.7601 237.142 43.123 236.832 44.4224C236.127 47.6003 233.737 50.0719 231.897 52.7202C230.057 55.3684 228.64 58.9488 230.191 61.8018C230.719 62.7692 231.601 63.659 231.601 64.7607C231.465 65.5437 231.228 66.3057 230.896 67.0276C230.254 69.3721 232.122 71.7378 234.28 72.8536C236.437 73.9694 238.919 74.3154 241.119 75.3535C243.186 76.3701 244.917 77.9618 246.105 79.9381C247.293 81.9143 247.887 84.1915 247.817 86.4972C249.819 86.7302 252.153 86.8503 253.507 85.3532C254.113 84.6823 254.409 83.7854 254.959 83.0722C255.664 82.14 256.764 81.5892 257.666 80.8406C262.411 76.9354 259.041 71.5401 261.727 67.3312C263.137 65.1632 265.38 65.827 267.65 65.8623C270.906 65.9281 274.161 65.6894 277.372 65.1491Z" fill="#4A4347"/>
<path opacity="0.1" d="M304.82 141.538C304.82 141.538 309.805 167.426 307.542 177.419C306.159 183.232 306.364 189.311 308.134 195.017" fill="black"/>
<path opacity="0.1" d="M224.24 152.434C224.24 152.434 222.069 169.693 225.686 173.323L224.24 152.434Z" fill="black"/>
<path d="M350.847 365.131C351.127 365.131 351.396 365.02 351.594 364.821C351.793 364.622 351.904 364.353 351.904 364.072C351.904 363.791 351.793 363.522 351.594 363.323C351.396 363.124 351.127 363.013 350.847 363.013C350.566 363.013 350.297 363.124 350.099 363.323C349.9 363.522 349.789 363.791 349.789 364.072C349.789 364.353 349.9 364.622 350.099 364.821C350.297 365.02 350.566 365.131 350.847 365.131Z" fill="black"/>
<g opacity="0.5">
<path opacity="0.5" d="M676.486 241.725V241.139L484.121 92.9802C484 92.8901 483.853 92.8416 483.702 92.8416C483.551 92.8416 483.404 92.8901 483.282 92.9802L290.91 241.139V470.792H291.277V471.159H676.86V241.506L676.486 241.725Z" fill="url(#paint1_linear_66_3840)"/>
</g>
<path d="M669.847 464.386H297.582V242.643L483.714 99.2864L669.847 242.643V464.386Z" fill="white"/>
<path d="M656.449 451.244H310.977V245.46L483.713 112.421L656.449 245.46V451.244Z" fill="#E0E0E0"/>
<path d="M542.316 109.347L331.578 164.683L401.843 433.144L612.582 377.807L542.316 109.347Z" fill="#2091F9"/>
<path d="M593.699 150.132H375.84V427.665H593.699V150.132Z" fill="#F5F5F5"/>
<path opacity="0.05" d="M299.344 242.996L485.476 353.868L299.344 464.739V242.996Z" fill="black"/>
<path d="M297.934 242.996L484.066 353.868L297.934 464.739V242.996Z" fill="white"/>
<path opacity="0.05" d="M668.789 242.996L482.656 353.868L668.789 464.739V242.996Z" fill="black"/>
<path d="M670.199 242.996L484.066 353.868L670.199 464.739V242.996Z" fill="white"/>
<path opacity="0.05" d="M297.934 461.208L484.066 315.733L670.198 461.208H297.934Z" fill="black"/>
<path d="M297.934 464.739L484.066 319.264L670.198 464.739H297.934Z" fill="white"/>
<path d="M335.758 481.582C335.758 481.582 326.409 449.804 337.514 426.4C342.232 416.618 343.654 405.566 341.568 394.904C340.538 389.852 339.049 384.904 337.119 380.124" stroke="#535461" stroke-width="2" stroke-miterlimit="10"/>
<path d="M344.023 365.336C344.023 369.234 336.972 380.526 336.972 380.526C336.972 380.526 329.922 369.227 329.922 365.336C329.922 363.463 330.665 361.667 331.987 360.343C333.309 359.018 335.102 358.274 336.972 358.274C338.842 358.274 340.636 359.018 341.958 360.343C343.28 361.667 344.023 363.463 344.023 365.336Z" fill="#6C63FF"/>
<path d="M355.692 386.917C353.577 390.187 341.535 395.837 341.535 395.837C341.535 395.837 341.754 382.518 343.869 379.248C344.923 377.769 346.506 376.755 348.289 376.415C350.071 376.075 351.916 376.437 353.439 377.425C354.962 378.413 356.046 379.951 356.465 381.719C356.885 383.487 356.608 385.349 355.692 386.917Z" fill="#6C63FF"/>
<path d="M355.154 423.787C351.678 425.539 338.438 424.331 338.438 424.331C338.438 424.331 345.34 412.947 348.809 411.196C349.639 410.731 350.555 410.439 351.5 410.337C352.446 410.236 353.403 410.327 354.313 410.606C355.222 410.884 356.067 411.345 356.794 411.958C357.522 412.572 358.117 413.328 358.546 414.178C358.974 415.029 359.227 415.958 359.287 416.909C359.348 417.86 359.216 418.813 358.899 419.711C358.582 420.61 358.087 421.435 357.443 422.136C356.8 422.838 356.021 423.402 355.154 423.795V423.787Z" fill="#6C63FF"/>
<path d="M348.499 451.604C345.368 453.921 332.113 454.966 332.113 454.966C332.113 454.966 336.992 442.579 340.123 440.263C341.629 439.256 343.464 438.869 345.248 439.181C347.031 439.492 348.627 440.48 349.704 441.938C350.781 443.396 351.256 445.213 351.032 447.012C350.807 448.812 349.9 450.456 348.499 451.604Z" fill="#6C63FF"/>
<path d="M326.722 396.585C329.542 399.297 342.508 402.114 342.508 402.114C342.508 402.114 339.328 389.184 336.536 386.472C335.178 385.27 333.41 384.638 331.599 384.707C329.788 384.776 328.073 385.541 326.81 386.843C325.547 388.145 324.833 389.885 324.817 391.7C324.8 393.515 325.483 395.267 326.722 396.592V396.585Z" fill="#6C63FF"/>
<path d="M319.346 429.218C322.822 430.969 336.063 429.762 336.063 429.762C336.063 429.762 329.161 418.378 325.692 416.627C324.035 415.877 322.154 415.797 320.44 416.404C318.726 417.01 317.313 418.256 316.494 419.881C315.675 421.507 315.515 423.386 316.046 425.127C316.578 426.868 317.76 428.336 319.346 429.225V429.218Z" fill="#6C63FF"/>
<path d="M316.524 461.915C319.655 464.231 332.91 465.276 332.91 465.276C332.91 465.276 328.031 452.89 324.9 450.573C324.161 449.968 323.307 449.519 322.39 449.254C321.472 448.99 320.511 448.914 319.564 449.033C318.616 449.151 317.703 449.461 316.879 449.944C316.054 450.426 315.337 451.072 314.769 451.84C314.201 452.609 313.795 453.485 313.576 454.416C313.356 455.347 313.328 456.312 313.492 457.254C313.656 458.196 314.009 459.095 314.531 459.896C315.052 460.697 315.73 461.384 316.524 461.915Z" fill="#6C63FF"/>
<path opacity="0.5" d="M475.957 162.844H388.531V169.905H475.957V162.844Z" fill="#6C63FF"/>
<path opacity="0.5" d="M577.484 191.091H388.531V198.153H577.484V191.091Z" fill="#6C63FF"/>
<path opacity="0.5" d="M577.484 209.452H388.531V216.514H577.484V209.452Z" fill="#6C63FF"/>
<path opacity="0.4" d="M577.484 227.813H388.531V234.875H577.484V227.813Z" fill="#6C63FF"/>
<path opacity="0.4" d="M577.484 246.174H388.531V253.236H577.484V246.174Z" fill="#6C63FF"/>
<path opacity="0.3" d="M496.403 264.535H388.531V271.597H496.403V264.535Z" fill="#6C63FF"/>
<path opacity="0.3" d="M535.886 282.896H388.531V289.957H535.886V282.896Z" fill="#6C63FF"/>
</g>
<defs>
<linearGradient id="paint0_linear_66_3840" x1="193.446" y1="259.118" x2="344.34" y2="259.118" gradientUnits="userSpaceOnUse">
<stop stop-color="#808080" stop-opacity="0.25"/>
<stop offset="0.54" stop-color="#808080" stop-opacity="0.12"/>
<stop offset="1" stop-color="#808080" stop-opacity="0.1"/>
</linearGradient>
<linearGradient id="paint1_linear_66_3840" x1="246075" y1="280256" x2="246075" y2="77572.2" gradientUnits="userSpaceOnUse">
<stop stop-color="#808080" stop-opacity="0.25"/>
<stop offset="0.54" stop-color="#808080" stop-opacity="0.12"/>
<stop offset="1" stop-color="#808080" stop-opacity="0.1"/>
</linearGradient>
<clipPath id="clip0_66_3840">
<rect width="677" height="514" fill="white" transform="translate(119.5 9)"/>
</clipPath>
</defs>
</svg>
